<svg xmlns="http://www.w3.org/2000/svg" height="146.11" width="652.0" viewBox="-6.0 -6.0 652.0 146.11"><g fill="#8c1515"><path d="M349.92 13.927c5.189-8.984 15.638-13.72 25.76-13.81 9.236-.597 19.685.94 26.156 8.242-3.29 4.339-6.435 8.767-9.725 13.105-3.67-4.211-6.688-10.14-12.617-11.334-5.839-1.807-13.177 1.23-14.696 7.484-2.459 9.924-.976 20.299-1.338 30.422h18.962v11.298h-18.98c0 17.028 0 34.055-.018 51.083-.072 4.826.705 9.598 1.609 14.334 4.338 2.006 9.02 3.037 13.81 3.127-.018 1.175-.036 3.543-.054 4.736-15.51-1.012-31.037-1.32-46.528-.018 0-.994.036-2.983.036-3.977 4.898-.868 10.972-3.145 11.17-9.038 1.899-20.01.615-40.165.995-60.247-3.778 0-7.556 0-11.334-.018.018-1.7.054-3.416.072-5.115 3.832-1.772 7.574-3.742 11.261-5.767 0-11.605-.687-24.15 5.46-34.507zM629.5.099c-10.031 2.313-20.19 4.265-30.493 4.717-.109.94-.308 2.82-.399 3.76 3.832 1.156 10.087.85 10.358 6.2 1.537 10.847.452 21.853.76 32.77-14.768-2.53-31.272-2.367-43.834 6.834-13.756 9.634-18.474 27.603-17.1 43.619.777 12.418 6.994 25.162 18.256 31.217 13.412 7.375 30.567 5.856 43.13-2.64.09 2.513.144 5.025.162 7.538 9.725-2.476 19.668-3.868 29.664-4.447v-4.339c-14.167-2.413-10.25-8.969-11.244-20.117.018-35.031-.525-70.081.74-105.11zM592.75 56.59c5.982-.064 12.066 1.847 16.977 5.182.018 18.853-.037 37.706.035 56.56-10.52 4.826-24.746 4.482-32.989-4.447-7.067-7.556-8.26-18.618-7.628-28.488.705-8.984 2.587-19.251 10.431-24.82 3.93-2.696 8.521-3.94 13.173-3.989zM33.207 11.613c11.912-.723 23.86.054 35.646 1.717-.705 8.387-.633 16.829.018 25.216-1.14 0-3.417.018-4.555.018-.904-5.242-1.844-11.605-7.43-13.937-8.279-3.489-17.968-3.832-26.554-1.338-11.225 3.326-13.069 19.847-4.718 27.06 10.448 9.147 23.246 15.13 33.947 24.005 16.756 13.34 14.57 44.395-5.314 53.74-16.738 7.737-36.387 5.785-53.668.922.108-8.31-.199-16.62-.579-24.92 1.247-.018 3.76-.072 5.025-.09.886 5.224 1.7 11.64 6.996 14.334 9.471 5.314 21.69 5.748 31.525 1.175 12.274-6.779 10.014-26.373-1.465-32.971-9.96-7.67-21.402-13.34-30.603-22C1.283 55.072.018 38.478 6.58 26.638c5.368-9.436 16.196-14.153 26.626-15.021zM103.9 29.382c.94.054 2.838.144 3.778.198-.018 6.309-.018 12.6-.018 18.908h28.922v10.846H107.66c.109 15.184-.235 30.386.163 45.588.398 5.785.56 12.997 5.965 16.54 6.815 4.05 14.967 1.519 21.782-1.138 2.097 5.133-3.235 8.007-6.941 10.14-8.695 4.212-19.305 4.664-28.289 1.158-7.682-2.875-11.388-11.28-11.786-18.98-.922-17.751 0-35.537.145-53.306H77.4l-.055-3.543C89.62 51.165 97.898 40.59 103.9 29.383zm77.4 16.238c-13.031-.133-26.174 6.34-30.361 19.426 1.138.65 3.452 1.933 4.609 2.584 5.007-8.84 16.702-13.376 25.92-8.278 7.23 3.29 7.846 12.128 7.702 19.052-11.37 3.651-23.138 6.526-33.875 11.877-12.87 6.797-14.533 26.065-5.314 36.495 10.864 9.96 28.994 8.35 39.73-1.067 3.272 6.47 11.009 8.948 17.75 7.05 5.875-1.14 9.761-6.037 13.612-10.177-.67-.76-2.024-2.296-2.693-3.074-2.422.615-5.152 2.53-7.52.67-3.073-2.116-2.694-6.364-2.91-9.635.216-14.027.993-28.09.252-42.134-.361-7.267-3.615-14.697-10.05-18.511-5.027-2.79-10.928-4.216-16.852-4.277zm7.67 43.738c.072 9.453 0 18.907.073 28.36-6.056 2.694-13.25 5.189-19.631 2.098-7.809-4.158-7.483-16.593-1.03-21.817 6.2-4.266 13.556-6.273 20.588-8.641z"/><path d="M430.43 45.976c-9.525.108-19.36 2.476-26.807 8.676-11.081 8.966-15.888 23.788-15.4 37.706-.055 11.912 3.65 24.62 13.033 32.538 11.08 9.653 27.186 10.61 40.978 7.736 14.55-3.2 25.487-15.943 28.578-30.223 3.326-14.822 1.934-32.048-8.261-44.014-7.845-9.182-20.407-12.654-32.12-12.419zm.127 10.117c5.12.1 10.185 2.202 13.466 6.278 5.947 7.284 7.538 17.082 7.972 26.228.072 9.96-1.193 20.714-7.466 28.848-6.163 7.971-19.449 8.857-26.553 1.68-5.44-5.042-7.466-12.543-8.695-19.593-1.283-9.363-.957-19.107 1.99-28.127 2.06-6.037 6.072-12.147 12.435-14.208a19.221 19.221 0 016.852-1.108zM227.87 51.724c10.106-.163 20.355-1.211 29.682-5.387.325 2.404.578 4.808.777 7.248 10.719-7.013 24.565-9.743 36.839-5.404 8.785 2.946 14.93 11.55 15.708 20.66 1.807 17.336-.814 34.906 1.5 52.205.253 5.44 6.11 6.67 10.358 7.556.018 1.012.018 3.036.036 4.049-14.352-1.14-43.093-.055-43.093-.055l-.054-4.098s10.367-2.915 11.026-5.898c2.368-12.87 1.808-26.174 1.681-39.243-.47-7.809-.271-17.57-7.736-22.324-8.008-4.61-17.823-2.476-26.011.506.054 16.92 0 33.856 0 50.776.235 4.52-.09 9.671 2.856 13.43 2.476 1.718 5.585 2.025 8.423 2.82.018 1.013.036 3.055.036 4.085-14.154-.921-28.343-1.518-42.479-.018 0-1.012.036-3.018.036-4.013 4.302-.994 9.978-2.35 10.791-7.555 1.97-12.472.452-25.216.922-37.797-.18-7.177.615-14.443-.65-21.53-.995-4.844-6.906-4.573-10.63-5.53 0-1.121-.018-3.363-.018-4.484zm252.59-.38c10.124-.145 20.246-1.519 29.863-4.754l.27 7.447c9.726-7.827 24.386-9.815 34.743-2.06l-10.8 16.483c-5.043-7.772-15.274-9.652-23.354-5.694 0 0-.054 34.218.054 51.318.416 3.814-.18 8.767 3.398 11.261 3.453 2.025 7.646 1.916 11.496 2.53 0 1.176-.018 3.562-.018 4.737-15.527-1.049-31.09-1.266-46.618-.036l-.003-4.7c5.005-.854 10.216-2.585 10.975-5.568 2.151-7.357 1.103-15.148 1.32-22.722-.217-12.057.434-24.132-.29-36.17-.054-5.856-6.688-6.38-10.99-7.23.008-1.66-.029-3.365-.035-4.844z"/></g></svg>