<svg width="190" height="32" viewBox="0 0 190 32" fill="#000000" xmlns="http://www.w3.org/2000/svg">
<g clip-path="url(#clip0_674_7751)">
<path d="M-0.000738554 16.46V15.9064C0.232087 15.3733 0.605875 15.0845 1.19823 14.9576C3.77516 14.4055 5.90702 11.8369 5.51739 9.19539C5.30199 7.7358 4.20913 6.62207 2.76783 6.33808C2.33544 6.25241 2.03926 5.91448 2.07727 5.47026C2.1327 4.81344 2.60628 4.43744 3.22081 4.30893C5.0359 3.92817 6.55164 2.65261 7.26754 0.945519C7.47978 0.43942 7.8203 0.0586569 8.38891 0.00471539C8.95751 -0.0492261 9.33446 0.326778 9.32813 0.869366C9.30912 2.5003 10.3655 3.89326 11.9415 4.28355C14.463 4.90705 17.0826 3.1952 18.0409 0.797973C18.2389 0.30298 18.7077 -0.00639021 19.2288 0.00471539C19.7498 0.015821 20.027 0.393411 20.0223 0.866193C20.0064 2.57328 21.1611 4.00749 22.8257 4.32004C23.3072 4.41047 23.5828 4.82137 23.4972 5.29733C23.3848 5.91448 22.9175 6.23179 22.3347 6.35553C19.7182 6.9124 17.5784 9.50318 17.9965 12.1558C18.2151 13.5409 19.2098 14.6165 20.5782 14.9513C23.0506 15.5541 25.6592 13.8835 26.6047 11.5863C26.8154 11.0722 27.2003 10.6804 27.7815 10.6709C28.301 10.6629 28.6558 11.0373 28.6479 11.5482C28.6242 13.2585 29.7867 14.6784 31.4529 14.9989C31.898 15.0845 32.1846 15.451 32.1308 15.8952C32.0516 16.5584 31.5638 16.9059 30.9477 17.0359C28.2852 17.5992 26.1122 20.3121 26.6491 22.9854C26.9247 24.3561 27.9779 25.389 29.3496 25.6539C29.8089 25.7427 30.1114 26.0997 30.0544 26.5709C29.9768 27.2182 29.4889 27.5641 28.8776 27.6957C27.0387 28.0924 25.5261 29.4012 24.8277 31.1401C24.5552 31.8191 23.8805 32.1888 23.1773 31.8667C22.9318 31.754 22.8067 31.3844 22.8083 31.1036C22.8178 29.4124 21.6869 28.0067 20.0381 27.6735C17.5736 27.1738 15.0522 28.8317 14.1335 31.1242C13.8627 31.7985 13.1927 32.1872 12.4879 31.8714C12.2297 31.7556 12.1078 31.3955 12.1094 31.1052C12.1189 29.3886 10.9595 27.9781 9.28853 27.6624C8.87673 27.5847 8.60114 27.2515 8.6249 26.8279C8.66133 26.1679 9.13965 25.7745 9.75418 25.6444C12.423 25.0812 14.6087 22.4253 14.1177 19.7489C13.8611 18.3464 12.7983 17.2882 11.403 17.0058C8.93058 16.5045 6.4281 18.1687 5.5063 20.4628C5.28773 21.0054 4.80941 21.3687 4.22338 21.3211C3.73714 21.2815 3.47898 20.888 3.48214 20.4216C3.49481 18.678 2.28159 17.266 0.574198 16.9725C0.309696 16.9265 0.140224 16.6504 -0.00390625 16.46H-0.000738554ZM16.2416 10.306C16.514 8.1594 15.0442 6.36981 12.8934 6.25558C10.1153 6.10804 7.47186 8.43387 7.25645 11.223C7.10757 13.1537 8.38257 14.7847 10.2927 15.0322C13.1199 15.3987 15.8821 13.1188 16.24 10.306H16.2416ZM24.8894 20.585C24.9575 18.5891 23.5131 17.0312 21.5222 16.9217C18.7299 16.7694 16.0785 19.1127 15.8789 21.9034C15.7285 23.9976 17.2284 25.6682 19.327 25.7348C22.1525 25.8237 24.7928 23.4026 24.8894 20.585Z" fill="#000000"/>
<path d="M132.606 30.5991C132.431 31.4987 131.541 31.9937 130.726 31.8604C130.109 31.7589 129.764 31.2179 129.881 30.6102L131.657 21.3863C131.809 20.593 131.54 19.7585 130.99 19.2603C130.44 18.7622 129.699 18.6035 128.941 18.6114C127.233 18.6273 125.679 19.4269 124.52 20.6882L122.569 30.6674C122.399 31.5336 121.468 31.9969 120.671 31.8636C120.145 31.7367 119.735 31.275 119.849 30.6912L122.437 17.4025C122.615 16.4887 123.616 15.9953 124.433 16.2142C124.952 16.3522 125.228 16.8314 125.155 17.3327L125.03 18.2021C126.528 16.898 128.364 16.1206 130.366 16.0508C132.256 16.0302 134.183 16.6521 134.625 18.6844C136.527 16.6537 139.262 15.6685 141.946 16.1983C144.467 16.6965 144.857 19.1207 144.434 21.2815L142.587 30.7308C142.429 31.5431 141.493 31.981 140.77 31.8699C140.148 31.7747 139.779 31.2417 139.896 30.6372L141.553 22.1002C141.66 21.5417 141.659 20.9912 141.584 20.455C141.451 19.4888 140.747 18.8399 139.772 18.6828C137.782 18.3592 135.788 19.1905 134.517 20.7739L132.606 30.6055V30.5991Z" fill="#000000"/>
<path d="M151.826 29.2474C153.847 29.698 155.825 29.3267 157.601 28.4177C158.12 28.1511 158.85 28.3415 159.026 28.8587C159.254 29.5298 158.822 30.1105 158.275 30.4246C156.72 31.321 155.062 31.9143 153.258 31.973C151.88 32.0191 150.603 31.8937 149.346 31.3686C147.42 30.5626 146.146 28.8667 145.95 26.736C145.685 23.8707 146.693 20.9658 148.687 18.8589C150.928 16.4902 154.343 15.4638 157.488 16.2396C159.731 16.7933 161.242 18.6273 161.424 20.8833C161.506 21.9066 161.413 22.8553 161.077 23.8453C160.935 24.2642 160.404 24.8226 159.884 24.8242L148.991 24.8417C148.731 26.9898 149.662 28.662 151.827 29.2506L151.826 29.2474ZM158.503 20.8976C158.236 19.9235 157.585 19.1159 156.609 18.8113C153.563 17.8578 150.255 19.4634 149.252 22.6158L158.533 22.6237C158.625 22.0367 158.603 21.5068 158.502 20.8976H158.503Z" fill="#000000"/>
<path d="M52.737 29.2266C54.7817 29.7342 56.7995 29.3043 58.6051 28.4C59.1183 28.143 59.8247 28.3794 59.9831 28.8823C60.189 29.5359 59.774 30.1055 59.2371 30.418C57.6913 31.3176 56.025 31.9094 54.2305 31.9728C52.8716 32.022 51.614 31.9014 50.3691 31.4017C48.3893 30.6052 47.0953 28.8744 46.8942 26.7119C46.6661 24.2481 47.4073 21.7557 48.8787 19.7598C50.5845 17.4435 53.1741 16.1093 56.0393 15.9934C57.1686 15.9474 58.2123 16.0791 59.2355 16.5106C60.8859 17.2071 62.0152 18.635 62.3129 20.4103C62.4824 21.4273 62.3953 22.3665 62.1767 23.3945C62.0437 24.0196 61.5511 24.8192 60.7829 24.8208L49.9447 24.8414C49.6548 26.915 50.6289 28.7046 52.737 29.2281V29.2266ZM59.4462 20.845C59.1722 19.9359 58.5861 19.1681 57.677 18.8555C54.6075 17.7957 51.2054 19.4441 50.206 22.6156L59.4905 22.6235C59.5792 22.019 59.5586 21.4828 59.4462 20.8466V20.845Z" fill="#000000"/>
<path d="M99.6292 31.9729C98.2702 32.0205 97.1013 31.8761 95.9135 31.3716C93.9416 30.5355 92.646 28.7618 92.4306 26.5962C92.117 23.4342 93.5076 20.2787 95.8834 18.2876C98.3938 16.1839 101.824 15.435 104.945 16.379C107.233 17.0707 108.798 18.9904 109.021 21.34C109.546 26.8817 105.231 31.7745 99.6307 31.9729H99.6292ZM104.385 27.3117C105.672 25.86 106.289 23.9689 106.087 22.0825C105.9 20.3374 104.686 19.0174 102.982 18.6668C100.827 18.2225 98.6345 18.9698 97.1425 20.596C95.8517 22.0032 95.1896 23.8912 95.3591 25.7918C95.5175 27.5687 96.7276 28.9458 98.465 29.3043C100.641 29.7533 102.878 29.014 104.385 27.3117Z" fill="#000000"/>
<path d="M185.497 30.7466L186.996 22.9758C187.317 21.31 187.037 19.4474 185.222 18.8461C183.046 18.1512 180.523 19.027 178.823 20.531L176.834 30.7006C176.671 31.5335 175.735 31.992 174.979 31.8587C174.434 31.7619 174.013 31.2685 174.129 30.6831L177.846 12.0193C178.025 11.1182 178.977 10.6502 179.791 10.8072C180.355 10.9611 180.681 11.4561 180.561 12.0368L179.325 18.018C181.731 16.2617 184.327 15.5827 187.111 16.3807C189.848 17.1898 190.311 19.9408 189.831 22.4142L188.234 30.6228C188.057 31.5335 187.089 32.0602 186.236 31.8301C185.808 31.7143 185.396 31.2733 185.497 30.7481V30.7466Z" fill="#000000"/>
<path d="M75.7751 20.8784C75.3823 18.6573 72.8498 18.3543 71.0648 18.743C69.7375 19.0317 68.5496 19.6727 67.5724 20.5976L65.6179 30.6212C65.4405 31.5319 64.457 32.057 63.6239 31.8317C63.0901 31.6874 62.7828 31.194 62.8905 30.645L65.4833 17.3532C65.6464 16.5171 66.5746 16.0665 67.319 16.1776C67.9066 16.2649 68.2645 16.7519 68.1917 17.312L68.084 18.129C70.3663 16.268 73.3344 15.5002 76.1378 16.4584C78.6752 17.3262 79.0585 20.0217 78.6071 22.3333L76.9836 30.6672C76.8157 31.5271 75.8718 32.0174 75.0751 31.8508C74.554 31.7413 74.1596 31.2479 74.2657 30.7037L75.7371 23.0932C75.8828 22.3412 75.9066 21.6098 75.7767 20.8784H75.7751Z" fill="#000000"/>
<path d="M88.3615 30.8876C85.8686 32.3773 81.5462 32.5804 79.435 30.1943C78.9962 29.6977 79.4049 28.8933 79.8182 28.5475C80.4375 28.0255 81.1091 28.0922 81.6999 28.5522C83.3154 29.8072 86 30.0816 87.3637 28.6205C87.7866 28.1683 88.0638 27.5416 87.9323 26.9181C87.4746 24.7525 80.9555 25.3935 80.9634 21.2876C80.9665 19.36 82.0119 17.6973 83.705 16.7946C85.9493 15.5983 89.2406 15.6951 91.3265 17.2102C91.7114 17.4895 91.6939 18.0178 91.4928 18.4192C91.1523 19.0998 90.3049 19.5472 89.589 19.149C88.4581 18.5175 87.2069 18.1733 85.9224 18.4715C85.1542 18.6508 84.4953 19.0966 84.1374 19.7725C83.7098 20.5816 83.96 21.4335 84.7551 21.8921C86.2313 22.744 87.8468 22.8836 89.4623 23.8863C90.3999 24.4685 90.978 25.3951 90.9527 26.5104C90.9099 28.3523 89.939 29.9468 88.3631 30.8876H88.3615Z" fill="#000000"/>
<path d="M170.198 30.9118C168.789 31.7367 167.279 32.0017 165.673 31.9858C164.067 31.97 162.445 31.4321 161.333 30.228C160.887 29.7441 161.246 28.9588 161.641 28.5986C162.282 28.0116 162.979 28.0862 163.611 28.5732C165.613 30.1137 168.917 29.9821 169.737 27.8149C170.941 24.6355 163.141 25.773 162.857 21.5878C162.723 19.5999 163.76 17.8071 165.494 16.841C167.731 15.594 170.97 15.6892 173.138 17.1503C173.366 17.3042 173.521 17.5946 173.509 17.8817C173.486 18.3719 173.201 18.7813 172.854 19.0208C172.485 19.2747 171.933 19.4143 171.513 19.1747C170.382 18.5274 169.131 18.1784 167.834 18.4624C167.013 18.6417 166.3 19.1351 165.961 19.8791C165.591 20.6898 165.9 21.4752 166.663 21.9115C168.171 22.7714 169.913 22.9268 171.461 23.9708C172.303 24.5387 172.831 25.4034 172.824 26.4314C172.815 28.3099 171.836 29.9535 170.195 30.9133L170.198 30.9118Z" fill="#000000"/>
<path d="M40.5316 27.913C40.9592 29.517 42.4813 29.5392 43.8181 29.1775C44.3756 29.0268 45.2119 28.7476 45.6379 29.2822C46.102 29.8645 45.7124 30.6879 44.9284 31.1432C43.8703 31.7572 42.6967 31.9095 41.4787 31.9063C40.5221 31.9031 39.5955 31.8048 38.8147 31.2114C37.4019 30.1373 37.4431 27.8639 37.7583 26.2615L40.5395 12.0542C40.7153 11.1563 41.6181 10.6613 42.4607 10.8072C42.9691 10.9262 43.3841 11.3974 43.2748 11.9495L42.418 16.3188L46.7735 16.3267C47.4467 16.3267 47.906 16.9106 47.7951 17.561C47.6383 18.2988 47.0016 18.8794 46.2239 18.8826L41.9111 18.8921L40.5427 25.9585C40.4128 26.6264 40.4413 27.2753 40.5332 27.9162L40.5316 27.913Z" fill="#000000"/>
<path d="M112.542 30.5563C112.385 31.3607 111.649 31.8683 110.908 31.8826C110.235 31.8953 109.679 31.3067 109.813 30.6166L112.37 17.4676C112.514 16.7282 113.203 16.2221 113.901 16.1555C114.257 16.1222 114.601 16.2761 114.806 16.4792C115.037 16.7092 115.133 17.0693 115.094 17.3993L115.018 18.0197C115.475 17.5913 115.86 17.201 116.383 16.8647C117.682 16.0254 119.323 15.8049 120.762 16.3284C121.337 16.5379 121.467 17.0789 121.287 17.585C120.984 18.4337 120.227 18.8716 119.313 18.7114C117.086 18.3227 115.729 18.9398 114.444 20.8072L112.544 30.5547L112.542 30.5563Z" fill="#000000"/>
</g>
<defs>
<clipPath id="clip0_674_7751">
<rect width="190" height="32" fill="#000000"/>
</clipPath>
</defs>
</svg>