<?xml version="1.0" encoding="UTF-8"?>
<svg class="wp-block-whitehouse-header__logo-icon" xmlns="http://www.w3.org/2000/svg" width="300" height="63.988" viewBox="0 0 300 63.988">
	<path d="M4.96 34.35q-.704.001-.703-.514c0-.345.201-.528.608-.56l2.105-.325c.622-.094 1.046-.25 1.26-.47q.329-.376.327-1.354V3.084c0-.438-.094-.746-.281-.934q-.282-.282-1.167-.282-1.728 0-3.41 1.498Q2.015 4.86 1.504 8.18l-.232 1.542q-.095.608-.653.607-.703.001-.608-.795l.42-8.461Q.526 0 1.271 0c.22 0 .42.063.608.188.188.094.501.2.935.326.469.125 1.197.188 2.194.188h10.424q1.493 0 2.15-.188.702-.186.983-.326.327-.188.608-.188c.5 0 .777.358.84 1.073l.42 8.46q.096.794-.608.796-.56.002-.652-.607L18.94 8.18q-.468-3.32-2.15-4.814-1.683-1.497-3.46-1.498c-.59 0-.983.094-1.166.282q-.282.282-.281.934v28.043q-.001.978.326 1.354.375.33 1.26.47l2.106.326q.608.048.607.559.001.512-.701.514zm17.15 0q-.704.001-.702-.514c0-.282.2-.465.607-.56l1.073-.187q.98-.187 1.26-.514c.22-.219.327-.653.327-1.31V3.785q.001-.98-.326-1.309-.282-.328-1.26-.514l-1.074-.188q-.608-.14-.607-.563-.001-.515.701-.514h8.55q.703 0 .702.563.001.422-.514.514l-1.26.188q-.98.14-1.31.514-.28.375-.281 1.355v11.732c0 .438.219.653.652.653h9.253c.438 0 .652-.219.652-.653V3.831q.001-.979-.326-1.355-.282-.374-1.26-.514l-1.261-.188q-.515-.092-.514-.514-.002-.563.702-.563h8.555q.7-.001.701.514.002.423-.607.563l-1.073.188q-.98.186-1.31.514c-.187.22-.281.653-.281 1.31v27.48q0 .979.281 1.31c.22.218.653.388 1.31.513l1.073.188q.608.142.607.559.001.515-.701.514h-8.555c-.465 0-.702-.188-.702-.564q-.001-.42.514-.514l1.26-.187q.98-.14 1.26-.514.328-.375.327-1.355V18.272q-.001-.655-.652-.653h-9.253c-.438 0-.652.22-.652.653v12.944q0 .979.281 1.355c.22.25.653.42 1.31.514l1.26.187q.516.093.514.514.001.564-.701.564zm25.047 0q-.702.001-.701-.514c0-.282.2-.465.607-.56l1.073-.187q.98-.187 1.26-.514c.22-.219.327-.653.327-1.31V3.785q.001-.98-.326-1.309-.282-.328-1.26-.514l-1.074-.188q-.608-.14-.607-.563-.001-.515.701-.514H62.86c.716 0 1.109.358 1.167 1.073l.375 7.76c.063.527-.138.795-.607.795-.376 0-.59-.201-.653-.608l-.282-1.73q-.516-3.177-2.105-4.626-1.59-1.496-4.394-1.497-1.87 0-2.614.563-.703.515-.702 1.868V15.56c0 .438.219.653.653.653h2.337q2.057-.001 2.526-2.195l.469-2.338q.187-.702.795-.608.516.094.514.796v10.517q.001.703-.514.796-.608.094-.795-.608l-.47-2.289q-.328-1.634-.934-2.15-.562-.515-1.636-.514h-2.288c-.438 0-.653.22-.653.653v11.733q.001 1.681.84 2.432c.59.5 1.65.746 3.179.746s2.883-.389 3.973-1.171q1.682-1.215 2.338-4.488l.563-2.757q.14-.61.702-.608c.438 0 .621.263.563.795l-.47 8.318q-.093 1.073-1.166 1.073H47.157Zm46.785.469a.62.62 0 0 1-.376-.139q-.188-.14-.281-.608l-3.599-14.49q-.046-.374-.281-.327-.234 0-.326.327l-4.019 14.49q-.139.468-.326.608a.44.44 0 0 1-.326.139.83.83 0 0 1-.42-.139q-.189-.14-.282-.608l-7.384-29.63q-.326-1.306-.746-1.823c-.25-.344-.684-.576-1.31-.702l-.702-.138c-.438-.094-.652-.295-.652-.608q-.001-.47.701-.47h7.527q.655-.001.653.515.001.422-.702.563l-.514.094q-.791.14-1.028.563c-.125.25-.107.715.045 1.403l5.515 22.81q.094.326.282.326.233 0 .326-.327l2.106-7.616q.515-1.777.514-3.272c0-.997-.157-2.105-.47-3.316l-1.962-7.992c-.219-.872-.438-1.498-.653-1.869q-.28-.56-.795-.652l-.702-.139c-.438-.094-.652-.295-.652-.608q-.001-.469.701-.469h6.4c.439 0 .653.17.653.514q.001.423-.701.563l-.514.094c-.407.063-.653.233-.747.514-.062.282-.013.765.139 1.448l1.591 6.683q.094.327.282.326.233.001.326-.326l1.68-5.704q.517-1.775.376-2.337-.093-.563-.514-.608l-.514-.094q-.703-.141-.702-.563.002-.515.653-.514h4.438q.794-.001.796.514c0 .313-.264.496-.796.563l-.514.045c-.407.03-.746.281-1.028.746q-.376.703-.84 2.288l-1.775 6.124c-.344 1.153-.527 2.244-.563 3.272q0 1.494.42 3.316l2.106 8.788q.093.327.281.326.235.001.282-.326l5.372-21.544q.656-2.71-.84-2.946l-.514-.094q-.704-.14-.702-.607.002-.47.653-.47h5.234c.527 0 .795.17.795.514 0 .313-.263.496-.795.563l-.514.045q-.61.048-1.073.747c-.282.438-.545 1.197-.796 2.288l-7.245 29.21q-.093.467-.281.607a.62.62 0 0 1-.376.139zm10.646-.47q-.7 0-.701-.513c0-.282.2-.465.607-.56l1.073-.187q.98-.187 1.26-.514c.22-.219.327-.653.327-1.31V3.785q.001-.98-.326-1.309-.282-.328-1.26-.514l-1.074-.188q-.608-.14-.607-.563-.001-.515.701-.514h8.555c.465 0 .702.188.702.563q.001.422-.514.514l-1.26.188q-.98.14-1.31.514-.282.375-.282 1.355v11.732c0 .438.22.653.653.653h9.252q.655-.001.653-.653V3.831q.001-.979-.327-1.355-.28-.374-1.26-.514l-1.26-.188q-.516-.092-.514-.514-.001-.563.701-.563h8.555q.704-.001.702.514.001.423-.608.563l-1.073.188q-.979.186-1.31.514c-.187.22-.28.653-.28 1.31v27.48q0 .979.28 1.31c.22.218.653.388 1.31.513l1.073.188q.61.142.608.559.002.515-.702.514h-8.555q-.702 0-.701-.564-.001-.42.514-.514l1.26-.187q.98-.14 1.26-.514.329-.375.327-1.355V18.272q-.002-.655-.653-.653h-9.252q-.655.002-.653.653v12.944q0 .979.282 1.355.327.374 1.31.514l1.26.187q.515.093.514.514.001.564-.702.564zm25.044 0q-.703 0-.702-.513c0-.282.201-.465.608-.56l1.077-.187q.98-.187 1.26-.514c.22-.219.327-.653.327-1.31V3.785q.001-.98-.326-1.309-.282-.328-1.26-.514l-1.078-.188q-.61-.14-.608-.563 0-.515.702-.514h8.461c.465 0 .702.17.702.514q.001.423-.608.563l-1.073.188q-.979.186-1.31.514c-.187.22-.281.653-.281 1.31v27.48q0 .979.282 1.31c.219.218.652.388 1.31.513l1.072.188q.61.142.608.559 0 .515-.702.514zm15.099 0q-.704 0-.702-.513c0-.345.201-.528.608-.56l2.105-.325c.621-.094 1.046-.25 1.26-.47q.328-.376.327-1.354V3.084c0-.438-.094-.746-.282-.934q-.282-.282-1.167-.282-1.728 0-3.41 1.498-1.684 1.494-2.194 4.814l-.233 1.542q-.096.608-.652.607c-.47 0-.67-.263-.608-.795l.42-8.461q.095-1.073.84-1.073c.22 0 .42.063.608.188.188.094.496.2.934.326.47.125 1.198.188 2.195.188h10.423q1.494 0 2.15-.188.704-.186.983-.326c.22-.125.42-.188.608-.188q.749 0 .84 1.073l.42 8.46q.095.794-.607.796c-.376 0-.59-.2-.653-.607l-.232-1.542q-.468-3.32-2.15-4.814-1.683-1.497-3.46-1.498c-.59 0-.983.094-1.166.282q-.282.283-.282.934v28.043q-.001.978.326 1.354.375.33 1.26.47l2.106.326q.61.048.608.559.002.512-.702.514zm17.15 0c-.465 0-.702-.17-.702-.513 0-.282.201-.465.608-.56l1.073-.187q.978-.187 1.26-.514c.22-.219.326-.653.326-1.31V3.785q.001-.98-.326-1.309-.282-.328-1.26-.514l-1.073-.188q-.61-.14-.608-.563-.002-.515.702-.514h15.702c.715 0 1.108.358 1.166 1.073l.376 7.76c.062.527-.139.795-.608.795-.376 0-.59-.201-.653-.608l-.281-1.73q-.514-3.177-2.101-4.626-1.59-1.496-4.394-1.497-1.869 0-2.619.563-.704.515-.702 1.868V15.56c0 .438.22.653.653.653h2.338q2.057-.001 2.525-2.195l.47-2.338q.185-.702.795-.608.515.094.514.796v10.517q.001.703-.514.796-.609.094-.796-.608l-.47-2.289q-.325-1.634-.933-2.15-.564-.515-1.636-.514h-2.289c-.438 0-.652.22-.652.653v11.733q0 1.681.84 2.432c.59.5 1.65.746 3.178.746s2.883-.389 3.974-1.171q1.681-1.215 2.337-4.488l.563-2.757q.14-.61.702-.608c.438 0 .621.263.559.795l-.465 8.318q-.094 1.073-1.167 1.073h-16.412zm28.186 0q-.704 0-.702-.513c0-.282.201-.465.608-.56l1.072-.187q.98-.187 1.26-.514c.22-.219.327-.653.327-1.31V3.785q.001-.98-.326-1.309-.282-.328-1.26-.514l-1.073-.188q-.61-.14-.608-.563-.001-.515.702-.514h8.55q.704 0 .702.563.001.422-.514.514l-1.26.188q-.98.14-1.31.514-.282.375-.282 1.355v11.732c0 .438.22.653.653.653h9.252c.438 0 .653-.219.653-.653V3.831q0-.979-.327-1.355-.281-.374-1.26-.514l-1.26-.188q-.516-.092-.515-.514 0-.563.702-.563h8.555c.465 0 .702.17.702.514q.001.423-.608.563l-1.073.188q-.979.186-1.31.514c-.187.22-.281.653-.281 1.31v27.48q0 .979.282 1.31c.219.218.652.388 1.31.513l1.072.188q.61.142.608.559 0 .515-.702.514h-8.555q-.703 0-.702-.564-.001-.42.514-.514l1.26-.187c.653-.094 1.078-.264 1.261-.514q.329-.375.327-1.355V18.272q-.002-.655-.653-.653h-9.252q-.655.002-.653.653v12.944q0 .979.282 1.355c.219.25.652.42 1.31.514l1.26.187q.515.093.514.514 0 .564-.702.564zm36.074.42c-1.497 0-2.896-.437-4.206-1.309q-1.964-1.353-3.46-3.692c-.965-1.56-1.729-3.379-2.288-5.466-.527-2.119-.795-4.394-.795-6.826q0-3.645.795-6.776c.564-2.087 1.323-3.91 2.289-5.466q1.495-2.385 3.46-3.692Q223.9.233 226.14.232c1.493 0 2.883.438 4.162 1.31q1.964 1.31 3.46 3.692c.996 1.555 1.76 3.38 2.288 5.466.563 2.088.84 4.345.84 6.776q-.002 3.648-.84 6.826-.793 3.131-2.289 5.466-1.495 2.34-3.46 3.692-1.916 1.309-4.16 1.31m0-1.26q3.32.001 5.19-3.973c1.247-2.646 1.868-6.67 1.868-12.06s-.626-9.395-1.868-12.01q-1.87-3.974-5.19-3.973c-2.212 0-3.91 1.323-5.189 3.973-1.247 2.62-1.868 6.62-1.868 12.01q-.001 8.085 1.868 12.06 1.917 3.974 5.19 3.973m24.642 1.26c-1.685 0-3.178-.388-4.488-1.166-1.278-.809-2.275-1.917-2.99-3.316-.715-1.435-1.077-3.071-1.077-4.908V3.786q.001-.98-.326-1.31-.282-.328-1.26-.514l-1.074-.188q-.608-.14-.608-.563 0-.515.702-.514h8.555c.465 0 .702.188.702.563q.001.422-.514.514l-1.26.188q-.939.14-1.261.514-.327.375-.326 1.355v21.593q.001 3.552 1.59 5.515 1.59 1.964 4.44 1.962c1.899 0 3.428-.652 4.487-1.962q1.588-1.964 1.587-5.515V4.764c0-1.68-.528-2.619-1.587-2.802l-1.26-.188q-.516-.092-.515-.514 0-.563.702-.563h6.731q.703-.001.702.514c0 .282-.2.47-.608.563l-1.077.188q-1.589.283-1.587 2.758v20.659q-.001 4.251-2.288 6.825-2.293 2.569-6.074 2.57h-.018zm19.88 0q-.93 0-2.104-.187a23 23 0 0 1-2.15-.465q-.98-.28-1.542-.608a2.4 2.4 0 0 1-.514-.375q-.14-.236-.139-.747l-.232-7.339c0-.621.2-.934.608-.934q.515.002.701.84l.42 1.775q1.591 6.683 5.936 6.682 2.34 0 3.692-1.542 1.402-1.59 1.404-4.439c0-1.9-.483-3.553-1.448-5.14-.935-1.586-2.445-3.164-4.533-4.72q-3.458-2.475-5.046-4.769-1.588-2.34-1.587-4.952.001-3.46 2.383-5.516C268.13.93 270.19.228 272.68.228q1.401-.001 2.708.326c.872.22 1.592.528 2.15.934q.281.187.42.42.188.234.188.608l.139 7.058c0 .527-.201.796-.608.796q-.422-.002-.608-.653l-.326-1.166c-.684-2.4-1.404-4.144-2.15-5.234q-1.074-1.682-3.133-1.681c-1.373 0-2.414.438-3.228 1.31-.777.871-1.166 2.105-1.166 3.691q.001 2.013 1.31 3.831 1.308 1.824 4.58 4.438 3.508 2.849 5.096 5.516c1.09 1.743 1.636 3.616 1.636 5.61q0 2.616-1.166 4.58-1.168 1.965-3.227 3.085-2.011 1.073-4.627 1.073zm11.282-.42q-.702 0-.701-.513c0-.282.2-.465.608-.56l1.072-.187c.653-.125 1.077-.295 1.26-.514.22-.219.327-.653.327-1.31V3.785q.001-.98-.326-1.309-.282-.328-1.26-.514l-1.073-.188q-.61-.14-.608-.563-.001-.515.701-.514h15.702q1.073 0 1.167 1.073l.375 7.76c.063.527-.138.795-.607.795q-.565.001-.653-.608l-.282-1.73q-.516-3.177-2.105-4.626-1.59-1.496-4.393-1.497-1.871 0-2.62.563-.7.515-.701 1.868V15.56c0 .438.219.653.652.653h2.338q2.057-.001 2.525-2.195l.47-2.338q.186-.702.795-.608.515.094.514.796v10.517q.001.703-.514.796-.609.094-.796-.608l-.469-2.289c-.219-1.09-.527-1.805-.934-2.15q-.563-.515-1.636-.514h-2.288q-.655.002-.653.653v11.733q.002 1.681.84 2.432c.595.5 1.654.746 3.178.746s2.883-.389 3.974-1.171q1.682-1.215 2.337-4.488l.564-2.757q.14-.61.701-.608c.438 0 .622.263.564.795l-.47 8.318q-.093 1.073-1.166 1.073h-16.409z" />
	<path d="M83.639 63.836 80.55 53.203h1.596l2.704 9.793h-.384l2.57-9.793h1.846l2.583 9.793h-.384l2.704-9.793h1.506l-3.088 10.633H90.37l-2.601-9.53h.308l-2.614 9.53H83.63zm15.68 0 4.004-10.633h1.36l-3.827 10.633zm8.228 0-3.826-10.633h1.435l4.018 10.633zm-6.204-4.237h5.704v1.3h-5.704zm17.227 4.371c-1.279 0-2.307-.304-3.071-.916q-1.152-.919-1.346-2.615h1.52q.135 1.107.885 1.685.75.577 2.038.577 1.078-.001 1.627-.398.564-.4.563-1.135c0-.443-.12-.792-.37-1.05q-.369-.402-1.167-.649l-1.846-.59c-.943-.304-1.64-.688-2.083-1.153q-.664-.697-.666-1.757 0-.9.443-1.55.457-.651 1.269-1.006.827-.37 1.922-.371 1.684 0 2.69.858 1.02.843 1.167 2.351h-1.52q-.18-1.005-.768-1.462-.59-.474-1.623-.473-.974.001-1.52.384c-.361.255-.545.617-.545 1.077q-.001.563.353.943.367.37 1.212.635l1.935.621q1.345.429 1.98 1.167.65.739.648 1.86c0 .942-.326 1.68-.974 2.198q-.972.77-2.749.77zm9.78-.134V53.203h1.564v10.633zm7.043 0V53.203h1.565v10.633zm-6.275-6.186h6.973v1.3h-6.973zm14.468 6.186V53.203h1.565v10.633zm8.18 0V53.203h1.819l5.64 9.1-.352.076v-9.172h1.506V63.84h-1.82l-5.64-9.1.353-.076v9.172zm20.185.148q-1.67-.001-2.879-.666a4.7 4.7 0 0 1-1.877-1.891c-.433-.81-.648-1.757-.648-2.852s.215-2.038.648-2.865a4.85 4.85 0 0 1 1.833-1.949q1.169-.71 2.686-.71 1.215 0 2.186.456.992.443 1.609 1.242a3.55 3.55 0 0 1 .755 1.846H174.7c-.098-.68-.416-1.216-.943-1.609q-.799-.603-1.994-.603-1.092.001-1.904.518-.811.516-1.27 1.448-.442.933-.442 2.2c0 .844.152 1.595.456 2.216a3.3 3.3 0 0 0 1.328 1.417q.886.489 2.127.487.886 0 1.565-.25c.451-.17.849-.416 1.18-.737l1.52.576a5.5 5.5 0 0 1-1.905 1.3q-1.08.43-2.467.43zm2.807-1.726v-3.263l.456.456h-3.174v-1.3h4.282v4.107zm10.16 1.578v-9.35h-3.59v-1.288h8.748v1.287h-3.59v9.351zm15.107.148q-1.139-.002-2.083-.398a5 5 0 0 1-1.64-1.153 5.5 5.5 0 0 1-1.095-1.744 6.2 6.2 0 0 1-.385-2.217q.002-1.594.666-2.82a4.8 4.8 0 0 1 1.833-1.904q1.183-.692 2.686-.693c1.001 0 1.927.233 2.704.693a4.8 4.8 0 0 1 1.833 1.904c.451.818.68 1.761.68 2.838 0 .796-.135 1.538-.399 2.217a5.3 5.3 0 0 1-1.077 1.743 5 5 0 0 1-1.653 1.136q-.944.4-2.07.398m-.018-1.328q1.066-.001 1.877-.532.813-.549 1.27-1.493.475-.945.474-2.172c0-.818-.152-1.515-.46-2.128q-.459-.931-1.27-1.434-.811-.518-1.89-.519-1.08 0-1.892.519a3.47 3.47 0 0 0-1.256 1.417q-.442.916-.442 2.14c0 .818.152 1.556.46 2.186q.457.945 1.256 1.475.812.53 1.878.532v.009zm11.375 1.18V53.203h1.82l5.64 9.1-.353.076v-9.172h1.507V63.84h-1.815l-5.64-9.1.352-.076v9.172z" />
</svg>